<svg width="30" height="24" viewBox="0 0 30 24" fill="none" xmlns="http://www.w3.org/2000/svg">
<mask id="mask0_20_206" style="mask-type:alpha" maskUnits="userSpaceOnUse" x="3" y="0" width="27" height="24">
<path d="M12.1764 24V15.5294H17.8235V24H19.8823C22.6437 24 24.8823 21.7614 24.8823 19V12.7059H29.1176L15 0L3.6169 10.2448C2.65519 11.1103 3.26747 12.7059 4.56133 12.7059H5.11762V24H12.1764Z" fill="#D9D9D9"/>
</mask>
<g mask="url(#mask0_20_206)">
<path d="M69.7106 58.3807L44.5618 42.1406C52.2823 50.3316 56.9591 57.6884 58.5922 64.2109C60.3112 70.6003 59.5811 76.2567 56.4018 81.18C51.2462 89.1638 44.4092 93.3277 35.8907 93.6719C27.4582 93.883 17.8765 90.618 7.14554 83.877C1.95611 80.5259 -3.2181 76.7132 -8.37709 72.439C-13.5832 67.9458 -18.6175 63.1864 -23.4799 58.161C-28.4754 53.0496 -33.2089 47.8245 -37.6805 42.4858C-42.2851 37.0612 -46.5807 31.7418 -50.5671 26.5278C-48.7956 30.5001 -46.3116 35.1209 -43.1152 40.3904C-39.9187 45.6599 -36.3896 51.1442 -32.5279 56.8433C-28.5802 62.4094 -24.5425 68.1279 -20.4146 73.9989C-16.2008 79.7368 -12.2767 85.1933 -8.64228 90.3685L-40.5772 69.7462C-42.9419 67.2764 -46.227 63.4581 -50.4324 58.2913C-54.685 52.9054 -58.6369 47.0538 -62.288 40.7365C-65.9391 34.4192 -68.6006 28.1754 -70.2724 22.0049C-71.9914 15.6154 -71.3901 10.1586 -68.4687 5.63451C-65.4612 0.977323 -62.796 -1.54399 -60.4731 -1.92942C-58.1973 -2.53384 -55.8618 -2.06271 -53.4667 -0.516041C-52.2691 0.257297 -50.8248 1.37851 -49.1338 2.84761C-47.5759 4.23078 -45.9042 5.8759 -44.1189 7.78297C-42.3808 9.47105 -40.529 11.4211 -38.5635 13.6331C-36.6451 15.6261 -34.7933 17.5761 -33.008 19.4832C-32.7419 19.655 -32.5852 19.8505 -32.5381 20.0694C-32.5381 20.0694 -32.405 20.1554 -32.1389 20.3272C-28.7014 24.0554 -24.9312 27.9985 -20.8284 32.1563C-16.8586 36.2282 -12.7128 40.3196 -8.391 44.4303C-3.98326 48.4079 0.467457 52.319 4.96113 56.1636C9.54074 59.8752 14.0261 63.1487 18.4171 65.9843C22.6751 68.7339 26.502 70.5453 29.8978 71.4183C33.3795 72.1582 35.9367 71.2641 37.5693 68.7359C40.1471 64.7441 39.0824 59.5313 34.3751 53.0976C29.6678 46.664 22.8205 39.6025 13.8332 31.9134C4.7987 24.0052 -5.64399 15.9419 -17.4949 7.72339C-29.3929 -0.714093 -41.2632 -8.75656 -53.1057 -16.404L-40.3457 -36.1638L58.6527 27.7655L63.2927 20.5801L85.0484 34.6291L69.7106 58.3807Z" fill="#181818"/>
</g>
</svg>
